<svg xmlns="http://www.w3.org/2000/svg" xmlns:xlink="http://www.w3.org/1999/xlink" width="1200" zoomAndPan="magnify" viewBox="0 0 900 899.99999" height="1200" preserveAspectRatio="xMidYMid meet" version="1.0"><path fill="#3b81f6" d="M 441.871094 209.835938 C 439.230469 209.835938 436.59375 209.902344 433.957031 210.03125 C 431.324219 210.160156 428.691406 210.355469 426.066406 210.613281 C 423.441406 210.871094 420.824219 211.195312 418.214844 211.582031 C 415.605469 211.96875 413.003906 212.417969 410.417969 212.933594 C 407.828125 213.449219 405.257812 214.027344 402.695312 214.667969 C 400.136719 215.308594 397.59375 216.011719 395.070312 216.777344 C 392.546875 217.546875 390.042969 218.371094 387.558594 219.261719 C 385.074219 220.148438 382.613281 221.101562 380.175781 222.109375 C 377.738281 223.117188 375.324219 224.1875 372.941406 225.316406 C 370.554688 226.445312 368.199219 227.628906 365.871094 228.875 C 363.546875 230.117188 361.25 231.417969 358.988281 232.773438 C 356.722656 234.128906 354.496094 235.542969 352.300781 237.007812 C 350.109375 238.472656 347.953125 239.992188 345.832031 241.5625 C 343.714844 243.136719 341.632812 244.757812 339.59375 246.433594 C 337.554688 248.105469 335.558594 249.828125 333.601562 251.601562 C 331.648438 253.371094 329.738281 255.191406 327.871094 257.058594 C 326.007812 258.921875 324.1875 260.832031 322.414062 262.789062 C 320.644531 264.742188 318.921875 266.738281 317.246094 268.78125 C 315.574219 270.820312 313.949219 272.898438 312.378906 275.019531 C 310.808594 277.136719 309.289062 279.292969 307.824219 281.488281 C 306.355469 283.679688 304.945312 285.910156 303.589844 288.171875 C 302.234375 290.433594 300.933594 292.730469 299.6875 295.058594 C 298.445312 297.382812 297.257812 299.738281 296.132812 302.125 C 295.003906 304.511719 293.933594 306.921875 292.925781 309.359375 C 291.914062 311.796875 290.964844 314.257812 290.078125 316.742188 C 289.1875 319.226562 288.359375 321.730469 287.59375 324.253906 C 286.828125 326.78125 286.125 329.320312 285.484375 331.882812 C 284.84375 334.441406 284.265625 337.015625 283.75 339.601562 C 283.234375 342.1875 282.785156 344.789062 282.398438 347.398438 C 282.011719 350.007812 281.6875 352.625 281.429688 355.25 C 281.171875 357.875 280.976562 360.507812 280.847656 363.140625 C 280.71875 365.777344 280.652344 368.414062 280.652344 371.054688 C 280.6875 377.023438 281.054688 382.96875 281.75 388.898438 C 220.949219 399.816406 175.332031 448.925781 175.332031 508.214844 C 175.332031 575.578125 234.210938 629.808594 307.347656 629.808594 L 778.394531 629.808594 C 845.757812 629.808594 899.988281 579.398438 899.988281 516.785156 C 899.988281 454.566406 846.425781 404.421875 779.652344 403.796875 C 779.386719 401.714844 779.074219 399.636719 778.71875 397.566406 C 778.359375 395.496094 777.957031 393.433594 777.503906 391.382812 C 777.054688 389.328125 776.554688 387.289062 776.011719 385.257812 C 775.46875 383.226562 774.878906 381.210938 774.246094 379.207031 C 773.613281 377.203125 772.933594 375.214844 772.207031 373.242188 C 771.484375 371.269531 770.714844 369.316406 769.902344 367.378906 C 769.089844 365.441406 768.234375 363.519531 767.335938 361.621094 C 766.4375 359.722656 765.496094 357.84375 764.511719 355.988281 C 763.527344 354.128906 762.503906 352.296875 761.4375 350.484375 C 760.371094 348.675781 759.261719 346.890625 758.117188 345.128906 C 756.96875 343.367188 755.78125 341.636719 754.558594 339.929688 C 753.332031 338.222656 752.066406 336.542969 750.765625 334.894531 C 749.464844 333.242188 748.128906 331.621094 746.753906 330.035156 C 745.378906 328.445312 743.96875 326.886719 742.523438 325.359375 C 741.078125 323.835938 739.601562 322.34375 738.089844 320.882812 C 736.574219 319.421875 735.03125 318 733.453125 316.609375 C 731.878906 315.21875 730.269531 313.867188 728.632812 312.550781 C 726.996094 311.234375 725.328125 309.953125 723.632812 308.714844 C 721.9375 307.472656 720.214844 306.269531 718.46875 305.105469 C 716.71875 303.941406 714.941406 302.816406 713.140625 301.734375 C 711.339844 300.652344 709.515625 299.609375 707.667969 298.605469 C 705.824219 297.605469 703.953125 296.644531 702.0625 295.730469 C 700.171875 294.8125 698.261719 293.9375 696.332031 293.109375 C 694.402344 292.277344 692.453125 291.492188 690.488281 290.75 C 688.519531 290.003906 686.539062 289.308594 684.542969 288.65625 C 682.542969 288 680.535156 287.394531 678.507812 286.832031 C 676.484375 286.269531 674.449219 285.753906 672.398438 285.28125 C 670.351562 284.8125 668.292969 284.386719 666.226562 284.011719 C 664.160156 283.632812 662.085938 283.300781 660.003906 283.019531 C 657.921875 282.734375 655.832031 282.496094 653.742188 282.308594 C 651.648438 282.117188 649.550781 281.976562 647.453125 281.882812 C 645.351562 281.785156 643.253906 281.738281 641.152344 281.738281 C 631.226562 281.753906 621.410156 282.816406 611.710938 284.921875 C 602.011719 287.03125 592.644531 290.136719 583.605469 294.246094 C 581.886719 291.070312 580.0625 287.960938 578.132812 284.910156 C 576.207031 281.859375 574.175781 278.875 572.046875 275.960938 C 569.917969 273.046875 567.695312 270.207031 565.375 267.441406 C 563.054688 264.675781 560.644531 261.992188 558.144531 259.390625 C 555.648438 256.785156 553.0625 254.269531 550.394531 251.839844 C 547.726562 249.410156 544.976562 247.074219 542.152344 244.828125 C 539.324219 242.582031 536.429688 240.433594 533.457031 238.382812 C 530.488281 236.332031 527.453125 234.386719 524.351562 232.539062 C 521.25 230.691406 518.089844 228.953125 514.875 227.316406 C 511.65625 225.683594 508.386719 224.15625 505.066406 222.742188 C 501.746094 221.328125 498.382812 220.027344 494.976562 218.835938 C 491.566406 217.648438 488.125 216.574219 484.644531 215.617188 C 481.164062 214.660156 477.65625 213.820312 474.121094 213.097656 C 470.582031 212.375 467.027344 211.773438 463.449219 211.289062 C 459.875 210.804688 456.285156 210.441406 452.683594 210.199219 C 449.082031 209.957031 445.476562 209.835938 441.871094 209.835938 Z M 441.871094 209.835938 " fill-opacity="1" fill-rule="nonzero"/><path fill="#92bbff" d="M 266.605469 270.503906 C 263.964844 270.503906 261.328125 270.570312 258.691406 270.699219 C 256.058594 270.828125 253.425781 271.023438 250.800781 271.28125 C 248.175781 271.539062 245.558594 271.863281 242.949219 272.25 C 240.339844 272.636719 237.738281 273.089844 235.152344 273.601562 C 232.5625 274.117188 229.992188 274.695312 227.429688 275.335938 C 224.871094 275.980469 222.328125 276.683594 219.804688 277.449219 C 217.28125 278.214844 214.777344 279.042969 212.292969 279.929688 C 209.808594 280.820312 207.347656 281.769531 204.910156 282.777344 C 202.472656 283.789062 200.058594 284.855469 197.675781 285.984375 C 195.289062 287.113281 192.933594 288.300781 190.605469 289.542969 C 188.28125 290.785156 185.984375 292.085938 183.722656 293.441406 C 181.457031 294.800781 179.230469 296.210938 177.035156 297.675781 C 174.84375 299.140625 172.6875 300.660156 170.566406 302.234375 C 168.449219 303.804688 166.367188 305.425781 164.328125 307.101562 C 162.289062 308.773438 160.292969 310.496094 158.335938 312.269531 C 156.382812 314.042969 154.472656 315.859375 152.605469 317.726562 C 150.742188 319.589844 148.921875 321.5 147.148438 323.457031 C 145.378906 325.410156 143.65625 327.410156 141.980469 329.449219 C 140.308594 331.488281 138.683594 333.566406 137.113281 335.6875 C 135.542969 337.804688 134.023438 339.960938 132.558594 342.15625 C 131.089844 344.351562 129.679688 346.578125 128.324219 348.839844 C 126.96875 351.105469 125.667969 353.398438 124.421875 355.726562 C 123.179688 358.054688 121.992188 360.410156 120.867188 362.792969 C 119.738281 365.179688 118.667969 367.589844 117.660156 370.027344 C 116.648438 372.464844 115.699219 374.925781 114.8125 377.410156 C 113.921875 379.894531 113.09375 382.398438 112.328125 384.921875 C 111.5625 387.449219 110.859375 389.992188 110.21875 392.550781 C 109.578125 395.109375 109 397.683594 108.484375 400.269531 C 107.96875 402.859375 107.519531 405.457031 107.132812 408.066406 C 106.746094 410.675781 106.421875 413.292969 106.164062 415.921875 C 105.90625 418.546875 105.710938 421.175781 105.582031 423.8125 C 105.453125 426.445312 105.386719 429.082031 105.386719 431.722656 C 105.421875 437.691406 105.789062 443.640625 106.488281 449.566406 C 45.683594 460.484375 0.0664062 509.59375 0.0664062 568.886719 C 0.0664062 636.246094 58.945312 690.476562 132.082031 690.476562 L 603.128906 690.476562 C 670.492188 690.476562 724.722656 640.066406 724.722656 577.453125 C 724.722656 515.234375 671.160156 465.09375 604.386719 464.46875 C 604.121094 462.382812 603.808594 460.304688 603.453125 458.234375 C 603.09375 456.164062 602.691406 454.101562 602.238281 452.050781 C 601.789062 449.996094 601.289062 447.957031 600.746094 445.925781 C 600.203125 443.894531 599.613281 441.878906 598.980469 439.875 C 598.347656 437.875 597.667969 435.886719 596.941406 433.914062 C 596.21875 431.941406 595.449219 429.984375 594.636719 428.046875 C 593.824219 426.109375 592.96875 424.191406 592.070312 422.289062 C 591.171875 420.390625 590.230469 418.511719 589.246094 416.65625 C 588.261719 414.800781 587.238281 412.964844 586.171875 411.15625 C 585.105469 409.34375 583.996094 407.558594 582.851562 405.796875 C 581.703125 404.039062 580.515625 402.304688 579.292969 400.597656 C 578.066406 398.890625 576.800781 397.210938 575.5 395.5625 C 574.199219 393.910156 572.863281 392.292969 571.488281 390.703125 C 570.113281 389.113281 568.703125 387.554688 567.257812 386.027344 C 565.8125 384.503906 564.335938 383.011719 562.824219 381.550781 C 561.308594 380.09375 559.765625 378.667969 558.191406 377.277344 C 556.613281 375.890625 555.003906 374.535156 553.367188 373.21875 C 551.730469 371.902344 550.0625 370.625 548.367188 369.382812 C 546.671875 368.140625 544.949219 366.9375 543.199219 365.773438 C 541.453125 364.609375 539.675781 363.488281 537.875 362.402344 C 536.074219 361.320312 534.25 360.277344 532.402344 359.277344 C 530.554688 358.273438 528.6875 357.316406 526.796875 356.398438 C 524.90625 355.480469 522.996094 354.609375 521.066406 353.777344 C 519.132812 352.945312 517.1875 352.160156 515.222656 351.417969 C 513.253906 350.675781 511.273438 349.976562 509.277344 349.324219 C 507.277344 348.671875 505.269531 348.0625 503.242188 347.5 C 501.21875 346.9375 499.183594 346.421875 497.132812 345.953125 C 495.085938 345.480469 493.027344 345.058594 490.960938 344.679688 C 488.894531 344.300781 486.820312 343.972656 484.738281 343.6875 C 482.65625 343.402344 480.566406 343.167969 478.476562 342.976562 C 476.382812 342.789062 474.285156 342.644531 472.1875 342.550781 C 470.085938 342.457031 467.988281 342.40625 465.886719 342.40625 C 455.960938 342.421875 446.144531 343.484375 436.445312 345.59375 C 426.746094 347.699219 417.378906 350.808594 408.339844 354.914062 C 406.621094 351.738281 404.796875 348.628906 402.867188 345.578125 C 400.941406 342.527344 398.910156 339.542969 396.78125 336.628906 C 394.652344 333.714844 392.429688 330.875 390.109375 328.109375 C 387.789062 325.34375 385.378906 322.660156 382.882812 320.058594 C 380.382812 317.453125 377.796875 314.9375 375.128906 312.507812 C 372.460938 310.078125 369.710938 307.742188 366.886719 305.496094 C 364.058594 303.25 361.164062 301.105469 358.191406 299.054688 C 355.222656 297.003906 352.1875 295.054688 349.085938 293.207031 C 345.984375 291.359375 342.824219 289.621094 339.609375 287.984375 C 336.390625 286.351562 333.121094 284.828125 329.800781 283.410156 C 326.480469 281.996094 323.117188 280.695312 319.710938 279.503906 C 316.300781 278.316406 312.859375 277.242188 309.378906 276.285156 C 305.898438 275.328125 302.390625 274.488281 298.855469 273.765625 C 295.316406 273.042969 291.761719 272.441406 288.183594 271.957031 C 284.609375 271.472656 281.019531 271.109375 277.417969 270.867188 C 273.816406 270.625 270.210938 270.503906 266.605469 270.503906 Z M 266.605469 270.503906 " fill-opacity="1" fill-rule="nonzero"/></svg>