<svg xmlns="http://www.w3.org/2000/svg" xmlns:xlink="http://www.w3.org/1999/xlink" width="1200" zoomAndPan="magnify" viewBox="0 0 900 899.99999" height="1200" preserveAspectRatio="xMidYMid meet" version="1.0"><defs><clipPath id="0c4e74237c"><path d="M 0 305.183594 L 900 305.183594 L 900 594.683594 L 0 594.683594 Z M 0 305.183594 " clip-rule="nonzero"/></clipPath></defs><path fill="#92bbff" d="M 898.199219 560.605469 C 898.199219 578.605469 883.621094 593.1875 865.621094 593.1875 L 211.859375 593.1875 C 193.859375 593.1875 179.28125 578.605469 179.28125 560.605469 C 179.28125 542.605469 193.859375 528.027344 211.859375 528.027344 L 281.160156 528.027344 C 293.578125 528.027344 303.660156 517.945312 303.660156 505.527344 C 303.660156 493.105469 293.578125 482.847656 281.160156 482.847656 L 34.378906 482.847656 C 16.378906 482.667969 1.800781 468.085938 1.800781 450.085938 C 1.800781 432.085938 16.378906 417.507812 34.378906 417.507812 L 489.238281 417.507812 C 501.660156 417.507812 511.738281 407.425781 511.738281 395.007812 C 511.738281 382.585938 501.660156 372.328125 489.238281 372.328125 L 410.21875 372.328125 C 392.21875 372.328125 377.640625 357.746094 377.640625 339.746094 C 377.640625 321.746094 392.21875 307.167969 410.21875 307.167969 L 740.339844 307.167969 C 758.339844 307.167969 772.921875 321.746094 772.921875 339.746094 C 772.921875 357.746094 758.339844 372.328125 740.339844 372.328125 L 665.101562 372.328125 C 652.679688 372.328125 642.601562 382.40625 642.601562 395.007812 C 642.601562 407.605469 652.679688 417.507812 665.101562 417.507812 L 740.339844 417.507812 C 758.339844 417.507812 772.921875 432.085938 772.921875 450.085938 C 772.921875 468.085938 758.339844 482.667969 740.339844 482.667969 L 457.019531 482.667969 C 444.601562 482.667969 434.339844 492.746094 434.339844 505.347656 C 434.339844 517.765625 444.421875 527.847656 457.019531 527.847656 L 865.621094 527.847656 C 883.621094 528.027344 898.199219 542.605469 898.199219 560.605469 Z M 898.199219 560.605469 " fill-opacity="1" fill-rule="nonzero"/><g clip-path="url(#0c4e74237c)"><path fill="#3b81f6" d="M 865.621094 526.046875 L 457.019531 526.046875 C 445.5 526.046875 436.320312 516.6875 436.320312 505.347656 C 436.320312 494.007812 445.679688 484.644531 457.019531 484.644531 L 740.339844 484.644531 C 759.421875 484.644531 774.71875 469.167969 774.71875 450.265625 C 774.71875 431.367188 759.238281 415.886719 740.339844 415.886719 L 665.101562 415.886719 C 653.761719 415.886719 644.398438 406.527344 644.398438 395.1875 C 644.398438 383.847656 653.761719 374.484375 665.101562 374.484375 L 740.339844 374.484375 C 759.421875 374.484375 774.71875 359.007812 774.71875 340.105469 C 774.71875 321.207031 759.238281 305.367188 740.339844 305.367188 L 410.21875 305.367188 C 391.320312 305.367188 375.839844 320.847656 375.839844 339.746094 C 375.839844 358.644531 391.320312 374.125 410.21875 374.125 L 489.238281 374.125 C 500.578125 374.125 509.941406 383.484375 509.941406 394.828125 C 509.941406 406.167969 500.578125 415.527344 489.238281 415.527344 L 34.378906 415.527344 C 15.480469 415.707031 0 431.1875 0 450.085938 C 0 468.984375 15.480469 484.464844 34.378906 484.464844 L 281.160156 484.464844 C 292.679688 484.464844 301.859375 493.828125 301.859375 505.167969 C 301.859375 516.6875 292.5 525.867188 281.160156 525.867188 L 211.859375 525.867188 C 192.78125 525.867188 177.480469 541.347656 177.480469 560.246094 C 177.480469 579.144531 192.960938 594.625 211.859375 594.625 L 865.441406 594.625 C 884.519531 594.625 899.820312 579.144531 900 560.246094 C 900 541.527344 884.519531 526.046875 865.621094 526.046875 Z M 865.621094 591.207031 L 211.859375 591.207031 C 194.941406 591.207031 181.078125 577.347656 181.078125 560.425781 C 181.078125 543.507812 194.941406 529.644531 211.859375 529.644531 L 281.160156 529.644531 C 294.660156 529.644531 305.640625 518.667969 305.640625 505.167969 C 305.640625 491.667969 294.660156 480.6875 281.160156 480.6875 L 34.378906 480.6875 C 17.460938 480.6875 3.601562 466.828125 3.601562 449.90625 C 3.601562 432.984375 17.460938 419.125 34.378906 419.125 L 489.238281 419.125 C 502.738281 419.125 513.71875 408.144531 513.71875 394.644531 C 513.71875 381.144531 502.738281 370.167969 489.238281 370.167969 L 410.21875 370.167969 C 393.300781 370.167969 379.441406 356.304688 379.441406 339.386719 C 379.441406 322.464844 393.300781 308.964844 410.21875 308.964844 L 740.339844 308.964844 C 757.261719 308.964844 771.121094 322.828125 771.121094 339.746094 C 771.121094 356.667969 757.261719 370.527344 740.339844 370.527344 L 665.101562 370.527344 C 651.601562 370.527344 640.621094 381.507812 640.621094 395.007812 C 640.621094 408.507812 651.601562 419.484375 665.101562 419.484375 L 740.339844 419.484375 C 757.261719 419.484375 771.121094 433.347656 771.121094 450.265625 C 771.121094 467.1875 757.261719 481.046875 740.339844 481.046875 L 457.019531 481.046875 C 443.519531 481.046875 432.539062 492.027344 432.539062 505.527344 C 432.539062 519.027344 443.519531 530.007812 457.019531 530.007812 L 865.621094 530.007812 C 882.539062 530.007812 896.398438 543.867188 896.398438 560.785156 C 896.398438 577.707031 882.539062 591.207031 865.621094 591.207031 Z M 865.621094 591.207031 " fill-opacity="1" fill-rule="nonzero"/></g></svg>