<svg xmlns="http://www.w3.org/2000/svg" xmlns:xlink="http://www.w3.org/1999/xlink" width="1200" zoomAndPan="magnify" viewBox="0 0 900 899.99999" height="1200" preserveAspectRatio="xMidYMid meet" version="1.0"><defs><clipPath id="7b8ab20c30"><path d="M 14.625 0 L 885.375 0 L 885.375 551 L 14.625 551 Z M 14.625 0 " clip-rule="nonzero"/></clipPath></defs><g clip-path="url(#7b8ab20c30)"><path fill="#d0d2d4" d="M 172.792969 234.414062 C 180.429688 234.414062 187.925781 234.984375 195.277344 236.015625 C 195.164062 233.011719 195.078125 230.007812 195.078125 226.972656 C 195.078125 101.617188 296.71875 0.0078125 422.074219 0.0078125 C 515.132812 0.0078125 595.089844 56.019531 630.132812 136.148438 C 636.339844 135.316406 642.691406 134.859375 649.128906 134.859375 C 725.421875 134.859375 787.300781 196.707031 787.300781 273.03125 C 787.300781 275.234375 787.242188 277.4375 787.128906 279.640625 C 844.199219 296.605469 885.820312 349.46875 885.820312 412.0625 C 885.820312 488.386719 823.972656 550.234375 747.679688 550.234375 L 172.792969 550.234375 C 85.597656 550.234375 14.910156 479.546875 14.910156 392.324219 C 14.910156 305.128906 85.597656 234.414062 172.792969 234.414062 Z M 172.792969 234.414062 " fill-opacity="1" fill-rule="evenodd"/></g><path fill="#a3d4f7" d="M 208.75 628.617188 C 213.816406 619.890625 224.972656 616.914062 233.695312 621.949219 C 242.449219 627.015625 245.425781 638.199219 240.363281 646.925781 L 198.625 719.1875 C 193.589844 727.910156 182.40625 730.886719 173.679688 725.851562 C 164.953125 720.789062 161.980469 709.601562 167.015625 700.878906 Z M 111.316406 797.398438 C 116.351562 788.644531 127.535156 785.667969 136.261719 790.730469 C 144.988281 795.796875 147.992188 806.953125 142.925781 815.707031 L 101.191406 887.964844 C 96.15625 896.691406 84.96875 899.667969 76.246094 894.605469 C 67.519531 889.570312 64.542969 878.382812 69.578125 869.660156 Z M 111.316406 797.398438 " fill-opacity="1" fill-rule="evenodd"/><path fill="#a3d4f7" d="M 432.660156 628.617188 C 437.722656 619.890625 448.878906 616.914062 457.605469 621.949219 C 466.328125 627.015625 469.332031 638.199219 464.269531 646.925781 L 422.53125 719.1875 C 417.496094 727.910156 406.3125 730.886719 397.585938 725.851562 C 388.859375 720.789062 385.886719 709.601562 390.921875 700.878906 Z M 335.222656 797.453125 C 340.230469 788.730469 351.359375 785.726562 360.109375 790.730469 C 368.835938 795.738281 371.839844 806.894531 366.832031 815.621094 L 325.097656 887.882812 C 320.089844 896.605469 308.933594 899.636719 300.207031 894.605469 C 291.484375 889.597656 288.480469 878.441406 293.484375 869.714844 Z M 335.222656 797.453125 " fill-opacity="1" fill-rule="evenodd"/><path fill="#a3d4f7" d="M 656.566406 628.617188 C 661.601562 619.890625 672.785156 616.914062 681.511719 621.949219 C 690.234375 627.015625 693.210938 638.199219 688.175781 646.925781 L 646.4375 719.1875 C 641.375 727.910156 630.21875 730.886719 621.492188 725.851562 C 612.738281 720.789062 609.765625 709.601562 614.828125 700.878906 Z M 559.101562 797.398438 C 564.164062 788.644531 575.351562 785.667969 584.074219 790.730469 C 592.800781 795.796875 595.773438 806.953125 590.710938 815.707031 L 549.003906 887.964844 C 543.941406 896.691406 532.78125 899.667969 524.027344 894.605469 C 515.304688 889.570312 512.328125 878.382812 517.390625 869.660156 Z M 559.101562 797.398438 " fill-opacity="1" fill-rule="evenodd"/></svg>