<svg xmlns="http://www.w3.org/2000/svg" xmlns:xlink="http://www.w3.org/1999/xlink" width="1200" zoomAndPan="magnify" viewBox="0 0 900 899.99999" height="1200" preserveAspectRatio="xMidYMid meet" version="1.0"><defs><clipPath id="cc90c9ff45"><path d="M 482 480 L 900 480 L 900 841.839844 L 482 841.839844 Z M 482 480 " clip-rule="nonzero"/></clipPath></defs><path fill="#68c1ee" d="M 525.746094 273.507812 C 525.734375 273.507812 525.691406 273.507812 525.679688 273.507812 L 499.316406 273.617188 C 505.417969 264.207031 510.605469 256.222656 511.671875 254.578125 C 517.257812 246.390625 516.433594 235.128906 509.164062 227.875 C 500.960938 219.660156 487.640625 219.660156 479.4375 227.875 C 477.957031 229.339844 477.738281 229.601562 449.054688 273.820312 L 312.640625 274.371094 L 390.253906 163.394531 L 446.957031 160.679688 C 458.546875 160.132812 467.492188 150.285156 466.941406 138.679688 C 466.378906 127.089844 456.777344 118.1875 444.925781 118.683594 L 420.730469 119.847656 L 430.6875 105.597656 C 437.328125 96.09375 435.011719 82.980469 425.503906 76.328125 C 416 69.691406 402.886719 71.992188 396.21875 81.511719 L 385.972656 96.175781 C 381.800781 85.1875 378.207031 75.683594 377.46875 73.734375 C 374.21875 64.464844 364.738281 58.46875 354.65625 59.910156 C 343.175781 61.554688 335.191406 72.214844 336.8125 83.695312 C 337.140625 85.902344 337.195312 86.121094 356.8125 137.855469 L 269.199219 263.097656 L 169.207031 148.40625 L 180.246094 92.730469 C 182.484375 81.347656 175.089844 70.292969 163.703125 68.03125 C 152.320312 65.753906 141.25 73.171875 139 84.570312 L 134.28125 108.339844 L 122.855469 95.242188 C 115.242188 86.492188 101.953125 85.585938 93.1875 93.210938 C 84.449219 100.839844 83.53125 114.113281 91.171875 122.867188 L 102.9375 136.363281 C 91.183594 137.761719 81.046875 138.980469 79.058594 139.214844 C 69.046875 140.1875 60.882812 148.253906 60.128906 158.636719 C 59.304688 170.226562 68.03125 180.28125 79.605469 181.101562 C 79.855469 181.117188 80.058594 181.128906 80.375 181.128906 C 82.445312 181.128906 88.742188 180.402344 136.355469 174.710938 L 223.566406 274.726562 L 91.664062 275.261719 L 56.753906 230.492188 C 49.621094 221.34375 36.414062 219.714844 27.25 226.84375 C 18.101562 233.992188 16.46875 247.199219 23.601562 256.347656 L 38.511719 275.46875 L 21.117188 275.535156 C 9.515625 275.578125 0.160156 285.042969 0.199219 296.644531 C 0.242188 308.222656 9.652344 317.574219 21.214844 317.574219 C 21.242188 317.574219 21.269531 317.574219 21.308594 317.574219 L 39.195312 317.507812 C 32.585938 327.300781 26.851562 335.777344 25.742188 337.421875 C 19.925781 345.636719 20.679688 357.078125 28.046875 364.429688 C 32.148438 368.53125 37.539062 370.585938 42.902344 370.585938 C 48.292969 370.585938 53.667969 368.53125 57.769531 364.429688 C 59.128906 363.070312 59.277344 362.90625 90.074219 317.300781 L 231.6875 316.738281 L 153.226562 428.90625 L 93.953125 432.84375 C 82.378906 433.609375 73.613281 443.625 74.382812 455.214844 C 75.148438 466.789062 85.246094 475.566406 96.738281 474.800781 L 122.320312 473.097656 L 107.054688 494.933594 C 100.386719 504.441406 102.707031 517.550781 112.226562 524.203125 C 115.886719 526.769531 120.097656 528.003906 124.253906 528.003906 C 130.894531 528.003906 137.410156 524.875 141.496094 519.019531 L 156.601562 497.429688 C 160.753906 507.785156 164.28125 516.578125 165.023438 518.472656 C 168.054688 526.632812 175.898438 532.160156 184.707031 532.160156 C 185.691406 532.160156 186.695312 532.089844 187.710938 531.953125 C 199.203125 530.308594 207.1875 519.652344 205.554688 508.171875 C 205.210938 505.824219 205.117188 505.46875 185.40625 456.257812 L 272.851562 331.25 L 369.773438 442.429688 L 359.320312 500.886719 C 357.277344 512.3125 364.890625 523.230469 376.300781 525.273438 C 377.5625 525.507812 378.796875 525.617188 380.046875 525.617188 C 390.03125 525.617188 398.878906 518.472656 400.703125 508.292969 L 405.21875 483.070312 L 422.71875 503.148438 C 426.890625 507.921875 432.71875 510.363281 438.589844 510.363281 C 443.488281 510.363281 448.410156 508.648438 452.390625 505.179688 C 461.140625 497.554688 462.046875 484.277344 454.433594 475.527344 L 437.09375 455.652344 C 448.207031 454.117188 457.644531 452.8125 459.589844 452.550781 C 469.453125 451.429688 477.421875 443.417969 478.148438 433.160156 C 478.988281 421.582031 470.261719 411.515625 458.683594 410.691406 C 456.613281 410.554688 456.242188 410.570312 404.078125 417.78125 L 315.6875 316.394531 L 445.269531 315.875 L 482.648438 362.027344 C 486.792969 367.15625 492.882812 369.820312 499 369.820312 C 503.648438 369.820312 508.3125 368.296875 512.222656 365.140625 C 521.246094 357.832031 522.632812 344.59375 515.324219 335.570312 L 499.203125 315.65625 L 525.828125 315.558594 C 537.449219 315.503906 546.828125 306.054688 546.773438 294.449219 C 546.734375 282.875 537.335938 273.507812 525.746094 273.507812 " fill-opacity="1" fill-rule="nonzero"/><g clip-path="url(#cc90c9ff45)"><path fill="#8dd2f4" d="M 884.097656 643.996094 C 884.070312 643.996094 884.042969 643.996094 884.03125 643.996094 L 863.894531 644.082031 C 868.558594 636.894531 872.523438 630.789062 873.34375 629.527344 C 877.613281 623.273438 876.980469 614.671875 871.425781 609.117188 C 865.144531 602.851562 854.980469 602.851562 848.710938 609.117188 C 847.585938 610.242188 847.421875 610.449219 825.5 644.230469 L 721.265625 644.65625 L 780.566406 559.863281 L 823.882812 557.78125 C 832.742188 557.367188 839.574219 549.839844 839.148438 540.976562 C 838.738281 532.117188 831.398438 525.316406 822.347656 525.699219 L 803.828125 526.578125 L 811.457031 515.699219 C 816.53125 508.429688 814.773438 498.417969 807.492188 493.328125 C 800.234375 488.253906 790.222656 490.023438 785.132812 497.292969 L 777.285156 508.5 C 774.105469 500.105469 771.347656 492.835938 770.785156 491.355469 C 768.289062 484.261719 761.058594 479.683594 753.363281 480.792969 C 744.570312 482.042969 738.480469 490.1875 739.742188 498.96875 C 739.992188 500.652344 740.019531 500.820312 755.011719 540.347656 L 688.070312 636.042969 L 611.65625 548.398438 L 620.078125 505.867188 C 621.804688 497.171875 616.15625 488.722656 607.457031 486.992188 C 598.761719 485.25 590.296875 490.929688 588.582031 499.625 L 584.976562 517.796875 L 576.253906 507.785156 C 570.421875 501.09375 560.257812 500.40625 553.59375 506.238281 C 546.898438 512.066406 546.199219 522.203125 552.027344 528.894531 L 561.011719 539.195312 C 552.042969 540.277344 544.277344 541.199219 542.785156 541.390625 C 535.117188 542.117188 528.886719 548.289062 528.324219 556.214844 C 527.695312 565.078125 534.347656 572.757812 543.207031 573.390625 C 543.386719 573.402344 543.539062 573.417969 543.785156 573.417969 C 545.363281 573.417969 550.164062 572.855469 586.554688 568.507812 L 653.191406 644.929688 L 552.425781 645.328125 L 525.746094 611.136719 C 520.289062 604.140625 510.191406 602.890625 503.195312 608.335938 C 496.1875 613.796875 494.953125 623.890625 500.398438 630.886719 L 511.796875 645.492188 L 498.503906 645.546875 C 489.644531 645.589844 482.484375 652.804688 482.523438 661.675781 C 482.539062 670.523438 489.726562 677.671875 498.585938 677.671875 C 498.601562 677.671875 498.628906 677.671875 498.644531 677.671875 L 512.332031 677.617188 C 507.257812 685.105469 502.894531 691.578125 502.03125 692.839844 C 497.601562 699.109375 498.175781 707.84375 503.800781 713.46875 C 506.925781 716.609375 511.042969 718.171875 515.15625 718.171875 C 519.257812 718.171875 523.375 716.609375 526.515625 713.46875 C 527.558594 712.425781 527.667969 712.300781 551.191406 677.464844 L 659.402344 677.027344 L 599.449219 762.734375 L 554.167969 765.738281 C 545.308594 766.328125 538.613281 773.984375 539.203125 782.828125 C 539.78125 791.691406 547.503906 798.382812 556.292969 797.792969 L 575.839844 796.503906 L 564.167969 813.183594 C 559.078125 820.453125 560.847656 830.464844 568.117188 835.554688 C 570.929688 837.515625 574.125 838.445312 577.324219 838.445312 C 582.371094 838.445312 587.375 836.058594 590.492188 831.589844 L 602.039062 815.101562 C 605.195312 823.003906 607.898438 829.722656 608.472656 831.164062 C 610.777344 837.40625 616.785156 841.628906 623.507812 841.628906 C 624.261719 841.628906 625.03125 841.589844 625.796875 841.464844 C 634.578125 840.214844 640.679688 832.082031 639.433594 823.304688 C 639.171875 821.507812 639.101562 821.234375 624.042969 783.625 L 690.855469 688.121094 L 764.914062 773.0625 L 756.917969 817.734375 C 755.367188 826.460938 761.167969 834.8125 769.90625 836.375 C 770.867188 836.539062 771.8125 836.621094 772.761719 836.621094 C 780.386719 836.621094 787.148438 831.164062 788.546875 823.386719 L 791.992188 804.117188 L 805.378906 819.464844 C 808.546875 823.113281 813.019531 824.976562 817.476562 824.976562 C 821.234375 824.976562 824.992188 823.675781 828.050781 821.015625 C 834.734375 815.183594 835.417969 805.035156 829.589844 798.355469 L 816.351562 783.171875 C 824.84375 782.007812 832.058594 781.003906 833.539062 780.800781 C 841.070312 779.949219 847.160156 773.832031 847.722656 765.988281 C 848.351562 757.140625 841.699219 749.457031 832.851562 748.828125 C 831.277344 748.703125 830.988281 748.71875 791.125 754.230469 L 723.585938 676.765625 L 822.605469 676.367188 L 851.152344 711.628906 C 854.332031 715.554688 858.96875 717.582031 863.660156 717.582031 C 867.199219 717.582031 870.78125 716.417969 873.757812 714.015625 C 880.644531 708.433594 881.699219 698.3125 876.117188 691.414062 L 863.8125 676.203125 L 884.167969 676.121094 C 893.042969 676.09375 900.203125 668.863281 900.160156 659.992188 C 900.132812 651.144531 892.933594 643.996094 884.097656 643.996094 " fill-opacity="1" fill-rule="nonzero"/></g><path fill="#2f93d3" d="M 851.6875 267.074219 C 851.671875 267.074219 851.660156 267.074219 851.660156 267.074219 L 840.398438 267.128906 C 843.003906 263.109375 845.226562 259.707031 845.679688 258.996094 C 848.066406 255.511719 847.707031 250.695312 844.609375 247.597656 C 841.097656 244.101562 835.417969 244.101562 831.921875 247.597656 C 831.289062 248.226562 831.195312 248.339844 818.945312 267.210938 L 760.714844 267.445312 L 793.855469 220.082031 L 818.039062 218.917969 C 822.992188 218.683594 826.804688 214.488281 826.585938 209.535156 C 826.351562 204.585938 822.25 200.785156 817.1875 201.003906 L 806.859375 201.5 L 811.113281 195.410156 C 813.9375 191.347656 812.949219 185.753906 808.902344 182.914062 C 804.84375 180.089844 799.246094 181.0625 796.394531 185.136719 L 792.019531 191.390625 C 790.234375 186.699219 788.710938 182.640625 788.398438 181.816406 C 786.996094 177.851562 782.953125 175.300781 778.65625 175.917969 C 773.746094 176.617188 770.347656 181.15625 771.046875 186.066406 C 771.183594 187 771.195312 187.097656 779.578125 209.179688 L 742.183594 262.628906 L 699.511719 213.679688 L 704.203125 189.921875 C 705.175781 185.054688 702.007812 180.335938 697.152344 179.375 C 692.3125 178.402344 687.566406 181.570312 686.617188 186.4375 L 684.601562 196.589844 L 679.730469 190.992188 C 676.46875 187.246094 670.800781 186.878906 667.058594 190.128906 C 663.328125 193.378906 662.929688 199.042969 666.195312 202.789062 L 671.226562 208.535156 C 666.207031 209.136719 661.871094 209.660156 661.023438 209.753906 C 656.757812 210.167969 653.273438 213.625 652.957031 218.054688 C 652.601562 222.992188 656.316406 227.285156 661.269531 227.640625 C 661.367188 227.640625 661.460938 227.65625 661.585938 227.65625 C 662.476562 227.65625 665.152344 227.339844 685.480469 224.910156 L 722.707031 267.59375 L 666.414062 267.828125 L 651.515625 248.722656 C 648.457031 244.8125 642.835938 244.113281 638.925781 247.160156 C 635 250.21875 634.300781 255.839844 637.347656 259.75 L 643.726562 267.925781 L 636.304688 267.9375 C 631.339844 267.964844 627.347656 271.996094 627.375 276.949219 C 627.375 281.902344 631.40625 285.890625 636.332031 285.890625 C 636.347656 285.890625 636.359375 285.890625 636.375 285.890625 L 644.027344 285.863281 C 641.1875 290.035156 638.746094 293.65625 638.265625 294.355469 C 635.796875 297.867188 636.113281 302.75 639.253906 305.890625 C 640.996094 307.632812 643.300781 308.507812 645.605469 308.507812 C 647.894531 308.507812 650.199219 307.632812 651.941406 305.890625 C 652.53125 305.300781 652.585938 305.230469 665.726562 285.769531 L 726.175781 285.535156 L 692.679688 333.402344 L 667.386719 335.089844 C 662.449219 335.40625 658.703125 339.683594 659.035156 344.636719 C 659.363281 349.574219 663.667969 353.320312 668.582031 352.988281 L 679.484375 352.261719 L 672.96875 361.589844 C 670.128906 365.648438 671.117188 371.246094 675.191406 374.085938 C 676.742188 375.183594 678.539062 375.703125 680.320312 375.703125 C 683.148438 375.703125 685.933594 374.359375 687.675781 371.863281 L 694.121094 362.660156 C 695.890625 367.074219 697.414062 370.820312 697.730469 371.628906 C 699.019531 375.113281 702.363281 377.472656 706.125 377.472656 C 706.535156 377.472656 706.972656 377.445312 707.414062 377.390625 C 712.308594 376.691406 715.726562 372.136719 715.011719 367.242188 C 714.875 366.238281 714.832031 366.089844 706.410156 345.074219 L 743.734375 291.722656 L 785.105469 339.179688 L 780.648438 364.125 C 779.78125 368.996094 783.019531 373.660156 787.890625 374.539062 C 788.4375 374.632812 788.960938 374.675781 789.496094 374.675781 C 793.746094 374.675781 797.53125 371.628906 798.3125 367.28125 L 800.234375 356.527344 L 807.722656 365.085938 C 809.492188 367.128906 811.976562 368.171875 814.472656 368.171875 C 816.558594 368.171875 818.671875 367.445312 820.371094 365.964844 C 824.117188 362.699219 824.484375 357.035156 821.234375 353.304688 L 813.84375 344.816406 C 818.585938 344.171875 822.605469 343.609375 823.445312 343.5 C 827.65625 343.019531 831.054688 339.601562 831.359375 335.226562 C 831.730469 330.277344 827.996094 325.984375 823.058594 325.640625 C 822.167969 325.570312 822.015625 325.570312 799.742188 328.65625 L 762.019531 285.382812 L 817.339844 285.164062 L 833.277344 304.859375 C 835.0625 307.042969 837.640625 308.179688 840.261719 308.179688 C 842.25 308.179688 844.238281 307.535156 845.910156 306.191406 C 849.753906 303.0625 850.355469 297.425781 847.230469 293.574219 L 840.355469 285.070312 L 851.714844 285.027344 C 856.679688 285 860.683594 280.96875 860.65625 276.015625 C 860.644531 271.078125 856.625 267.074219 851.6875 267.074219 " fill-opacity="1" fill-rule="nonzero"/></svg>