<svg xmlns="http://www.w3.org/2000/svg" xmlns:xlink="http://www.w3.org/1999/xlink" width="1200" zoomAndPan="magnify" viewBox="0 0 900 899.99999" height="1200" preserveAspectRatio="xMidYMid meet" version="1.0"><defs><clipPath id="abae97cdf3"><path d="M 0 7.3125 L 900 7.3125 L 900 893 L 0 893 Z M 0 7.3125 " clip-rule="nonzero"/></clipPath></defs><path fill="#92bbff" d="M 683.59375 450 C 683.59375 453.761719 683.5 457.523438 683.3125 461.285156 C 683.125 465.042969 682.84375 468.792969 682.46875 472.539062 C 682.09375 476.285156 681.625 480.019531 681.066406 483.742188 C 680.503906 487.464844 679.851562 491.171875 679.105469 494.863281 C 678.359375 498.554688 677.523438 502.222656 676.59375 505.875 C 675.664062 509.523438 674.644531 513.152344 673.535156 516.753906 C 672.425781 520.355469 671.226562 523.925781 669.9375 527.46875 C 668.652344 531.011719 667.273438 534.523438 665.8125 538 C 664.347656 541.476562 662.800781 544.917969 661.164062 548.316406 C 659.53125 551.71875 657.8125 555.082031 656.011719 558.398438 C 654.207031 561.71875 652.324219 564.992188 650.359375 568.21875 C 648.394531 571.449219 646.351562 574.625 644.226562 577.757812 C 642.101562 580.886719 639.902344 583.960938 637.625 586.984375 C 635.347656 590.007812 632.996094 592.972656 630.570312 595.882812 C 628.144531 598.789062 625.648438 601.640625 623.082031 604.429688 C 620.515625 607.214844 617.878906 609.941406 615.175781 612.601562 C 612.472656 615.261719 609.703125 617.859375 606.871094 620.386719 C 604.039062 622.914062 601.144531 625.371094 598.191406 627.757812 C 595.234375 630.144531 592.222656 632.460938 589.152344 634.703125 C 586.082031 636.941406 582.957031 639.109375 579.777344 641.199219 C 576.597656 643.292969 573.371094 645.304688 570.089844 647.238281 C 566.8125 649.171875 563.488281 651.027344 560.113281 652.800781 C 556.742188 654.574219 553.328125 656.265625 549.875 657.875 C 546.417969 659.484375 542.925781 661.011719 539.390625 662.449219 C 535.859375 663.890625 532.292969 665.246094 528.695312 666.511719 C 525.097656 667.78125 521.46875 668.960938 517.808594 670.054688 C 514.148438 671.144531 510.46875 672.148438 506.757812 673.0625 C 503.050781 673.976562 499.320312 674.800781 495.570312 675.535156 C 491.824219 676.269531 488.058594 676.914062 484.273438 677.464844 C 480.492188 678.019531 476.699219 678.480469 472.894531 678.847656 C 469.089844 679.214844 465.28125 679.492188 461.460938 679.679688 C 457.644531 679.863281 453.824219 679.953125 450 679.953125 C 446.175781 679.953125 442.355469 679.863281 438.539062 679.679688 C 434.71875 679.492188 430.910156 679.214844 427.105469 678.847656 C 423.300781 678.480469 419.507812 678.019531 415.726562 677.464844 C 411.941406 676.914062 408.175781 676.269531 404.429688 675.535156 C 400.679688 674.800781 396.949219 673.976562 393.242188 673.0625 C 389.53125 672.148438 385.851562 671.144531 382.191406 670.054688 C 378.53125 668.960938 374.902344 667.78125 371.304688 666.511719 C 367.707031 665.246094 364.140625 663.890625 360.609375 662.449219 C 357.074219 661.011719 353.582031 659.484375 350.125 657.875 C 346.671875 656.265625 343.257812 654.574219 339.886719 652.800781 C 336.511719 651.027344 333.1875 649.171875 329.910156 647.238281 C 326.628906 645.304688 323.402344 643.292969 320.222656 641.199219 C 317.042969 639.109375 313.917969 636.945312 310.847656 634.703125 C 307.777344 632.460938 304.765625 630.144531 301.808594 627.757812 C 298.855469 625.371094 295.960938 622.914062 293.128906 620.386719 C 290.296875 617.859375 287.527344 615.265625 284.824219 612.601562 C 282.121094 609.941406 279.484375 607.214844 276.917969 604.429688 C 274.351562 601.640625 271.855469 598.789062 269.429688 595.882812 C 267.003906 592.972656 264.652344 590.007812 262.375 586.984375 C 260.097656 583.960938 257.898438 580.886719 255.773438 577.757812 C 253.648438 574.625 251.605469 571.449219 249.640625 568.21875 C 247.675781 564.992188 245.792969 561.71875 243.988281 558.398438 C 242.1875 555.082031 240.46875 551.71875 238.835938 548.316406 C 237.199219 544.917969 235.652344 541.476562 234.1875 538 C 232.726562 534.523438 231.347656 531.011719 230.0625 527.46875 C 228.773438 523.925781 227.574219 520.355469 226.464844 516.753906 C 225.355469 513.152344 224.335938 509.523438 223.40625 505.875 C 222.476562 502.222656 221.640625 498.554688 220.894531 494.863281 C 220.148438 491.171875 219.496094 487.464844 218.933594 483.742188 C 218.375 480.019531 217.90625 476.285156 217.53125 472.539062 C 217.15625 468.792969 216.875 465.042969 216.6875 461.285156 C 216.5 457.523438 216.40625 453.761719 216.40625 450 C 216.40625 446.238281 216.5 442.476562 216.6875 438.714844 C 216.875 434.957031 217.15625 431.207031 217.53125 427.460938 C 217.90625 423.714844 218.375 419.980469 218.933594 416.257812 C 219.496094 412.535156 220.148438 408.828125 220.894531 405.136719 C 221.640625 401.445312 222.476562 397.777344 223.40625 394.125 C 224.335938 390.476562 225.355469 386.847656 226.464844 383.246094 C 227.574219 379.644531 228.773438 376.074219 230.0625 372.53125 C 231.347656 368.988281 232.726562 365.476562 234.1875 362 C 235.652344 358.523438 237.199219 355.082031 238.835938 351.679688 C 240.46875 348.28125 242.1875 344.917969 243.988281 341.601562 C 245.792969 338.28125 247.675781 335.007812 249.640625 331.78125 C 251.605469 328.550781 253.648438 325.371094 255.773438 322.242188 C 257.898438 319.113281 260.097656 316.039062 262.375 313.015625 C 264.652344 309.992188 267.003906 307.027344 269.429688 304.117188 C 271.855469 301.207031 274.351562 298.359375 276.917969 295.570312 C 279.484375 292.78125 282.121094 290.058594 284.824219 287.398438 C 287.527344 284.734375 290.296875 282.140625 293.128906 279.613281 C 295.960938 277.085938 298.855469 274.628906 301.808594 272.242188 C 304.765625 269.855469 307.777344 267.539062 310.847656 265.296875 C 313.917969 263.054688 317.042969 260.890625 320.222656 258.800781 C 323.402344 256.707031 326.628906 254.695312 329.910156 252.761719 C 333.1875 250.828125 336.511719 248.972656 339.886719 247.199219 C 343.257812 245.421875 346.671875 243.730469 350.125 242.125 C 353.582031 240.515625 357.074219 238.988281 360.609375 237.550781 C 364.140625 236.109375 367.707031 234.753906 371.304688 233.488281 C 374.902344 232.21875 378.53125 231.039062 382.191406 229.945312 C 385.851562 228.855469 389.53125 227.851562 393.242188 226.9375 C 396.949219 226.023438 400.679688 225.199219 404.429688 224.464844 C 408.175781 223.730469 411.941406 223.085938 415.726562 222.535156 C 419.507812 221.980469 423.300781 221.519531 427.105469 221.152344 C 430.910156 220.785156 434.71875 220.507812 438.539062 220.320312 C 442.355469 220.136719 446.175781 220.046875 450 220.046875 C 453.824219 220.046875 457.644531 220.136719 461.460938 220.320312 C 465.28125 220.507812 469.089844 220.785156 472.894531 221.152344 C 476.699219 221.519531 480.492188 221.980469 484.273438 222.535156 C 488.058594 223.085938 491.824219 223.730469 495.570312 224.464844 C 499.320312 225.199219 503.050781 226.023438 506.757812 226.9375 C 510.46875 227.851562 514.148438 228.855469 517.808594 229.945312 C 521.46875 231.039062 525.097656 232.21875 528.695312 233.488281 C 532.292969 234.753906 535.859375 236.109375 539.390625 237.550781 C 542.925781 238.988281 546.417969 240.515625 549.875 242.125 C 553.328125 243.730469 556.742188 245.421875 560.113281 247.199219 C 563.488281 248.972656 566.8125 250.828125 570.089844 252.761719 C 573.371094 254.695312 576.597656 256.707031 579.777344 258.800781 C 582.957031 260.890625 586.082031 263.054688 589.152344 265.296875 C 592.222656 267.539062 595.234375 269.855469 598.191406 272.242188 C 601.144531 274.628906 604.039062 277.085938 606.871094 279.613281 C 609.703125 282.140625 612.472656 284.734375 615.175781 287.398438 C 617.878906 290.058594 620.515625 292.78125 623.082031 295.570312 C 625.648438 298.359375 628.144531 301.207031 630.570312 304.117188 C 632.996094 307.027344 635.347656 309.992188 637.625 313.015625 C 639.902344 316.039062 642.101562 319.113281 644.226562 322.242188 C 646.351562 325.371094 648.394531 328.550781 650.359375 331.78125 C 652.324219 335.007812 654.207031 338.28125 656.011719 341.601562 C 657.8125 344.917969 659.53125 348.28125 661.164062 351.679688 C 662.800781 355.082031 664.347656 358.523438 665.8125 362 C 667.273438 365.476562 668.652344 368.988281 669.9375 372.53125 C 671.226562 376.074219 672.425781 379.644531 673.535156 383.246094 C 674.644531 386.847656 675.664062 390.476562 676.59375 394.125 C 677.523438 397.777344 678.359375 401.445312 679.105469 405.136719 C 679.851562 408.828125 680.503906 412.535156 681.066406 416.257812 C 681.625 419.980469 682.09375 423.714844 682.46875 427.460938 C 682.84375 431.207031 683.125 434.957031 683.3125 438.714844 C 683.5 442.476562 683.59375 446.238281 683.59375 450 Z M 683.59375 450 " fill-opacity="1" fill-rule="nonzero"/><g clip-path="url(#abae97cdf3)"><path fill="#3b81f6" d="M 450 163.042969 C 443.207031 163.042969 437.871094 157.703125 437.871094 150.914062 L 437.871094 19.441406 C 437.871094 12.648438 443.207031 7.3125 450 7.3125 C 456.792969 7.3125 462.128906 12.648438 462.128906 19.441406 L 462.128906 150.914062 C 462.128906 157.460938 456.550781 163.042969 450 163.042969 Z M 462.128906 880.558594 L 462.128906 749.085938 C 462.128906 742.296875 456.792969 736.957031 450 736.957031 C 443.207031 736.957031 437.871094 742.296875 437.871094 749.085938 L 437.871094 880.558594 C 437.871094 887.351562 443.207031 892.6875 450 892.6875 C 456.792969 892.6875 462.128906 887.351562 462.128906 880.558594 Z M 157.949219 450 C 157.949219 443.207031 152.609375 437.871094 145.820312 437.871094 L 12.40625 437.871094 C 5.613281 437.871094 0.277344 443.207031 0.277344 450 C 0.277344 456.792969 5.613281 462.128906 12.40625 462.128906 L 145.820312 462.128906 C 152.609375 462.128906 157.949219 456.792969 157.949219 450 Z M 899.722656 450 C 899.722656 443.207031 894.386719 437.871094 887.59375 437.871094 L 754.179688 437.871094 C 747.390625 437.871094 742.050781 443.207031 742.050781 450 C 742.050781 456.792969 747.390625 462.128906 754.179688 462.128906 L 887.59375 462.128906 C 894.386719 462.128906 899.722656 456.792969 899.722656 450 Z M 243.574219 246.96875 C 248.183594 242.117188 248.183594 234.597656 243.332031 229.746094 L 148.972656 136.84375 C 144.121094 132.234375 136.601562 132.234375 131.75 137.085938 C 127.140625 141.9375 127.140625 149.457031 131.992188 154.308594 L 226.351562 247.210938 C 228.777344 249.636719 231.6875 250.609375 234.839844 250.609375 C 237.996094 250.609375 241.148438 249.394531 243.574219 246.96875 Z M 768.007812 763.15625 C 772.617188 758.304688 772.617188 750.785156 767.765625 745.933594 L 673.40625 653.03125 C 668.554688 648.421875 661.035156 648.421875 656.183594 653.273438 C 651.574219 658.125 651.574219 665.644531 656.425781 670.496094 L 750.785156 763.398438 C 753.210938 765.824219 756.121094 766.792969 759.273438 766.792969 C 762.429688 766.792969 765.582031 765.582031 768.007812 763.15625 Z M 148.972656 763.15625 L 243.332031 670.253906 C 248.183594 665.644531 248.183594 657.882812 243.574219 653.03125 C 238.964844 648.179688 231.203125 648.179688 226.351562 652.789062 L 131.992188 745.933594 C 127.140625 750.542969 127.140625 758.304688 131.75 763.15625 C 134.175781 765.582031 137.328125 766.792969 140.484375 766.792969 C 143.636719 766.792969 146.546875 765.582031 148.972656 763.15625 Z M 673.40625 247.210938 L 767.765625 154.308594 C 772.617188 149.699219 772.617188 141.9375 768.007812 137.085938 C 763.398438 132.234375 755.636719 132.234375 750.785156 136.84375 L 656.425781 229.746094 C 651.574219 234.355469 651.574219 242.117188 656.183594 246.96875 C 658.609375 249.394531 661.761719 250.609375 664.914062 250.609375 C 668.070312 250.609375 671.222656 249.394531 673.40625 247.210938 Z M 337.933594 184.144531 C 343.996094 181.476562 346.910156 174.441406 344.484375 168.378906 L 320.710938 111.859375 C 318.042969 105.796875 311.007812 102.882812 304.703125 105.308594 C 298.636719 107.976562 295.726562 115.011719 298.152344 121.078125 L 321.921875 177.59375 C 323.863281 182.203125 328.472656 185.113281 333.082031 185.113281 C 335.023438 185.113281 336.476562 184.871094 337.933594 184.144531 Z M 595.054688 794.933594 C 601.121094 792.265625 604.03125 785.230469 601.605469 779.164062 L 577.832031 722.648438 C 575.164062 716.582031 568.128906 713.671875 561.824219 716.097656 C 555.761719 718.765625 552.847656 725.800781 555.273438 731.863281 L 579.046875 788.382812 C 580.988281 792.992188 585.597656 795.902344 590.203125 795.902344 C 591.902344 795.902344 593.601562 795.417969 595.054688 794.933594 Z M 115.5 599.421875 L 172.988281 575.894531 C 179.292969 573.46875 182.203125 566.191406 179.535156 560.125 C 177.109375 553.820312 169.832031 550.910156 163.769531 553.578125 L 106.28125 577.105469 C 99.972656 579.53125 97.0625 586.808594 99.730469 592.871094 C 101.671875 597.480469 106.28125 600.390625 110.890625 600.390625 C 112.34375 600.390625 114.042969 600.148438 115.5 599.421875 Z M 735.988281 346.664062 L 793.476562 323.136719 C 799.785156 320.710938 802.695312 313.433594 800.027344 307.371094 C 797.601562 301.0625 790.324219 298.152344 784.257812 300.820312 L 726.769531 324.347656 C 720.464844 326.773438 717.554688 334.050781 720.222656 340.117188 C 722.160156 344.726562 726.769531 347.636719 731.378906 347.636719 C 733.078125 347.394531 734.53125 347.152344 735.988281 346.664062 Z M 577.832031 177.839844 L 601.605469 121.320312 C 604.273438 115.253906 601.363281 107.976562 595.054688 105.554688 C 588.75 102.882812 581.714844 105.796875 579.046875 112.101562 L 555.273438 168.621094 C 552.605469 174.683594 555.515625 181.960938 561.824219 184.386719 C 563.28125 185.113281 564.976562 185.359375 566.433594 185.359375 C 571.285156 185.113281 575.894531 182.445312 577.832031 177.839844 Z M 320.710938 788.382812 L 344.484375 731.863281 C 347.152344 725.800781 344.238281 718.523438 337.933594 716.097656 C 331.625 713.429688 324.59375 716.339844 321.925781 722.648438 L 298.152344 779.164062 C 295.484375 785.230469 298.394531 792.507812 304.703125 794.933594 C 306.15625 795.660156 307.855469 795.902344 309.308594 795.902344 C 314.160156 795.902344 318.769531 792.992188 320.710938 788.382812 Z M 179.777344 339.875 C 182.203125 333.566406 179.292969 326.53125 173.230469 324.105469 L 115.742188 300.578125 C 109.433594 298.152344 102.398438 301.0625 99.972656 307.128906 C 97.546875 313.433594 100.457031 320.46875 106.523438 322.894531 L 164.011719 346.421875 C 165.46875 347.152344 167.164062 347.394531 168.621094 347.394531 C 173.230469 347.394531 177.839844 344.484375 179.777344 339.875 Z M 800.269531 592.871094 C 802.695312 586.566406 799.785156 579.53125 793.71875 577.105469 L 735.988281 553.578125 C 729.679688 551.152344 722.648438 554.0625 720.222656 560.125 C 717.796875 566.433594 720.707031 573.46875 726.769531 575.894531 L 784.257812 599.421875 C 785.714844 600.148438 787.414062 600.390625 788.867188 600.390625 C 793.71875 600.390625 798.328125 597.480469 800.269531 592.871094 Z M 800.269531 592.871094 " fill-opacity="1" fill-rule="nonzero"/></g></svg>