<svg xmlns="http://www.w3.org/2000/svg" xmlns:xlink="http://www.w3.org/1999/xlink" width="1200" zoomAndPan="magnify" viewBox="0 0 900 899.99999" height="1200" preserveAspectRatio="xMidYMid meet" version="1.0"><path fill="#bde0fe" d="M 175.816406 646.652344 C 157.375 643.546875 126.875 726.800781 141.503906 732.207031 C 156.132812 737.527344 189.292969 655.25 175.816406 646.652344 Z M 175.816406 646.652344 " fill-opacity="1" fill-rule="evenodd"/><path fill="#bde0fe" d="M 289.65625 646.652344 C 271.214844 643.546875 240.714844 726.800781 255.34375 732.207031 C 269.882812 737.527344 303.042969 655.25 289.65625 646.652344 Z M 289.65625 646.652344 " fill-opacity="1" fill-rule="evenodd"/><path fill="#bde0fe" d="M 487.28125 646.652344 C 468.839844 643.546875 438.339844 726.800781 452.96875 732.207031 C 467.511719 737.527344 500.667969 655.25 487.28125 646.652344 Z M 487.28125 646.652344 " fill-opacity="1" fill-rule="evenodd"/><path fill="#bde0fe" d="M 616.285156 646.652344 C 597.84375 643.546875 567.34375 726.800781 581.972656 732.207031 C 596.511719 737.527344 629.671875 655.25 616.285156 646.652344 Z M 616.285156 646.652344 " fill-opacity="1" fill-rule="evenodd"/><path fill="#bde0fe" d="M 265.71875 551.074219 C 247.277344 547.96875 216.867188 631.222656 231.40625 636.632812 C 246.035156 641.953125 279.195312 559.675781 265.71875 551.074219 Z M 265.71875 551.074219 " fill-opacity="1" fill-rule="evenodd"/><path fill="#bde0fe" d="M 127.496094 551.074219 C 109.054688 547.96875 78.554688 631.222656 93.183594 636.632812 C 107.8125 641.953125 140.972656 559.675781 127.496094 551.074219 Z M 127.496094 551.074219 " fill-opacity="1" fill-rule="evenodd"/><path fill="#bde0fe" d="M 692.089844 551.074219 C 673.648438 547.96875 643.238281 631.222656 657.777344 636.632812 C 672.40625 641.953125 705.566406 559.675781 692.089844 551.074219 Z M 692.089844 551.074219 " fill-opacity="1" fill-rule="evenodd"/><path fill="#bde0fe" d="M 564.152344 551.074219 C 545.710938 547.96875 515.210938 631.222656 529.839844 636.632812 C 544.378906 641.953125 577.628906 559.675781 564.152344 551.074219 Z M 564.152344 551.074219 " fill-opacity="1" fill-rule="evenodd"/><path fill="#f1c40f" d="M 366.257812 472.609375 L 469.90625 472.609375 L 404.296875 588.398438 L 490.386719 588.398438 L 349.058594 837.894531 L 349.058594 663.140625 L 301.535156 663.140625 Z M 366.257812 472.609375 " fill-opacity="1" fill-rule="evenodd"/><path fill="#adb5bd" d="M 808.589844 217.972656 C 799.546875 130.375 724.449219 62.105469 632.953125 62.105469 C 574.347656 62.105469 522.480469 90.300781 490.386719 133.390625 C 468.839844 120.445312 443.570312 112.910156 416.441406 112.910156 C 367.5 112.910156 324.324219 137.378906 298.878906 174.441406 C 288.148438 171.605469 276.800781 170.007812 265.097656 170.007812 C 194.167969 170.007812 136.714844 226.484375 136.714844 296.261719 C 136.714844 365.859375 194.167969 422.425781 265.097656 422.425781 L 357.304688 422.425781 C 382.394531 438.386719 412.1875 447.785156 444.28125 447.785156 L 781.546875 447.785156 C 846.980469 447.785156 900 395.652344 900 331.371094 C 900 276.136719 860.988281 229.941406 808.589844 217.972656 Z M 808.589844 217.972656 " fill-opacity="1" fill-rule="evenodd"/><path fill="#e9ecef" d="M 646.605469 268.332031 C 627.898438 214.605469 576.210938 176.035156 515.210938 176.035156 C 501.46875 176.035156 488.257812 177.988281 475.757812 181.621094 C 439.9375 131.882812 380.976562 99.433594 314.304688 99.433594 C 241.425781 99.433594 177.855469 138.355469 143.542969 196.074219 C 105.0625 206.003906 76.871094 237.214844 76.871094 274.097656 C 76.871094 276.667969 77.046875 279.148438 77.3125 281.722656 C 31.476562 303.976562 0 350.257812 0 403.894531 C 0 479.257812 62.152344 540.347656 138.753906 540.347656 L 631.710938 540.347656 C 708.402344 540.347656 770.554688 479.257812 770.554688 403.894531 C 770.554688 333.5 716.292969 275.515625 646.605469 268.332031 Z M 646.605469 268.332031 " fill-opacity="1" fill-rule="evenodd"/></svg>