<svg xmlns="http://www.w3.org/2000/svg" xmlns:xlink="http://www.w3.org/1999/xlink" width="1200" zoomAndPan="magnify" viewBox="0 0 900 899.99999" height="1200" preserveAspectRatio="xMidYMid meet" version="1.0"><defs><clipPath id="2bed298bca"><path d="M 131.625 1 L 768.375 1 L 768.375 827 L 131.625 827 Z M 131.625 1 " clip-rule="nonzero"/></clipPath></defs><path fill="#d8eaf3" d="M 527.824219 750.183594 C 616.769531 760.289062 680.441406 788.589844 680.441406 821.941406 C 680.441406 864.394531 577.351562 898.757812 450 898.757812 C 322.648438 898.757812 219.558594 864.394531 219.558594 821.941406 C 219.558594 788.589844 284.242188 760.289062 374.195312 750.183594 " fill-opacity="1" fill-rule="nonzero"/><g clip-path="url(#2bed298bca)"><path fill="#5cb3e4" d="M 131.625 319.617188 C 131.625 143.753906 274.136719 1.242188 450 1.242188 C 625.863281 1.242188 768.375 143.753906 768.375 319.617188 C 768.375 496.492188 450 826.996094 450 826.996094 C 450 826.996094 131.625 496.492188 131.625 319.617188 Z M 131.625 319.617188 " fill-opacity="1" fill-rule="nonzero"/></g><path fill="#ffffff" d="M 442.925781 480.320312 C 430.796875 480.320312 421.699219 471.226562 421.699219 459.097656 L 421.699219 411.59375 C 421.699219 399.464844 430.796875 390.367188 442.925781 390.367188 C 500.535156 390.367188 548.039062 343.875 548.039062 285.253906 C 548.039062 227.644531 501.546875 181.148438 442.925781 181.148438 C 385.3125 181.148438 337.8125 227.644531 337.8125 285.253906 C 337.8125 297.382812 328.714844 306.480469 316.585938 306.480469 C 304.457031 306.480469 295.359375 297.382812 295.359375 285.253906 C 295.359375 204.394531 361.058594 137.6875 442.925781 137.6875 C 523.78125 137.6875 590.488281 203.386719 590.488281 285.253906 C 590.488281 359.035156 535.910156 420.6875 464.148438 430.796875 L 464.148438 458.085938 C 464.148438 471.226562 455.054688 480.320312 442.925781 480.320312 Z M 442.925781 480.320312 " fill-opacity="1" fill-rule="nonzero"/><path fill="#ffffff" d="M 442.925781 598.574219 C 420.6875 598.574219 402.496094 580.382812 402.496094 558.144531 C 402.496094 535.910156 420.6875 517.71875 442.925781 517.71875 C 465.160156 517.71875 483.351562 535.910156 483.351562 558.144531 C 483.351562 580.382812 465.160156 598.574219 442.925781 598.574219 Z M 442.925781 598.574219 " fill-opacity="1" fill-rule="nonzero"/></svg>