<?xml version="1.0" standalone="no"?>
<!DOCTYPE svg PUBLIC "-//W3C//DTD SVG 20010904//EN"
 "http://www.w3.org/TR/2001/REC-SVG-20010904/DTD/svg10.dtd">
<svg version="1.0" xmlns="http://www.w3.org/2000/svg"
 width="512.000000pt" height="512.000000pt" viewBox="0 0 512.000000 512.000000"
 preserveAspectRatio="xMidYMid meet">

<g transform="translate(0.000000,512.000000) scale(0.100000,-0.100000)"
fill="#000000" stroke="none">
<path d="M1650 5065 l0 -55 110 0 110 0 0 -55 0 -55 55 0 55 0 0 -55 0 -55 55
0 55 0 0 -55 0 -55 55 0 55 0 0 -55 0 -55 55 0 55 0 0 -55 0 -55 -55 0 -55 0
0 -55 0 -55 -55 0 -55 0 0 55 0 55 -55 0 -55 0 0 55 0 55 -55 0 -55 0 0 55 0
55 -55 0 -55 0 0 55 0 55 -110 0 -110 0 0 55 0 55 -110 0 -110 0 0 55 0 55
-333 0 -332 0 -75 -43 c-284 -161 -484 -439 -557 -771 -13 -57 -17 -167 -20
-563 l-4 -493 110 0 111 0 0 55 0 55 55 0 55 0 0 -110 0 -110 110 0 110 0 0
55 0 55 55 0 55 0 0 110 0 110 55 0 55 0 0 55 0 55 110 0 110 0 0 -55 0 -55
55 0 55 0 0 -110 0 -110 55 0 55 0 0 -55 0 -55 110 0 110 0 0 110 0 110 55 0
55 0 0 -55 0 -55 55 0 55 0 0 55 0 55 55 0 55 0 0 55 0 55 -55 0 -55 0 0 110
0 110 -220 0 -220 0 0 55 0 55 110 0 110 0 0 55 0 55 55 0 55 0 0 55 0 55 55
0 55 0 0 -55 0 -55 55 0 55 0 0 -165 0 -165 55 0 55 0 0 -385 0 -385 -55 0
-55 0 0 -165 0 -165 -55 0 -55 0 0 -55 0 -55 -55 0 -55 0 0 -55 0 -55 -55 0
-55 0 0 -55 0 -55 -110 0 -110 0 0 -55 0 -55 -330 0 -330 0 0 55 0 55 -110 0
-110 0 0 55 0 55 -55 0 -55 0 0 55 0 55 -55 0 -55 0 0 55 0 55 -55 0 -55 0 0
-165 0 -165 55 0 55 0 0 -165 0 -165 -55 0 -55 0 0 -317 c0 -356 10 -455 60
-603 59 -176 147 -319 279 -451 149 -149 356 -269 479 -277 42 -3 62 -8 62
-17 0 -37 60 -39 1368 -42 l1272 -4 0 141 0 140 275 0 275 0 0 55 0 55 110 0
110 0 0 55 0 55 165 0 165 0 0 -55 0 -55 55 0 55 0 0 55 0 55 55 0 55 0 0 55
0 55 54 0 c52 0 55 -1 58 -27 3 -26 6 -23 34 32 17 33 35 70 38 83 7 20 4 22
-33 22 l-41 0 0 55 0 55 -55 0 -55 0 0 -55 0 -55 -55 0 -55 0 0 110 0 110 -55
0 -55 0 0 110 0 110 55 0 55 0 0 -55 0 -55 55 0 55 0 0 -55 0 -55 55 0 55 0 0
55 0 55 55 0 55 0 0 55 c0 54 0 55 30 55 l30 0 0 1448 c0 796 -3 1464 -6 1485
-4 20 -12 37 -18 37 -17 0 -36 81 -36 155 0 62 -1 65 -24 65 -19 0 -33 16 -75
88 -28 48 -67 105 -86 127 l-34 40 -1 -457 c0 -256 -4 -458 -9 -460 -5 -1 -30
-33 -55 -71 -36 -52 -46 -76 -46 -107 l0 -40 -54 0 c-30 0 -56 5 -58 10 -2 7
-15 7 -38 0 -20 -6 -180 -10 -382 -10 l-348 0 0 -55 0 -55 -55 0 -55 0 0 54 0
54 -42 7 c-100 16 -205 91 -249 177 -11 21 -24 38 -29 38 -6 0 -10 102 -10
275 l0 275 -110 0 -110 0 0 55 0 55 -110 0 -110 0 0 55 0 55 -165 0 -165 0 0
55 0 55 55 0 55 0 0 55 0 55 110 0 110 0 0 55 0 55 165 0 165 0 0 55 0 55 573
0 c380 0 567 4 557 10 -8 6 -57 24 -107 40 -187 60 -179 60 -1310 60 l-1033 0
0 55 0 55 -165 0 -165 0 0 -55z m770 -660 l0 -55 -55 0 -55 0 0 55 0 55 55 0
55 0 0 -55z m440 -110 l0 -55 -55 0 -55 0 0 -55 0 -55 -55 0 -55 0 0 55 0 55
55 0 55 0 0 55 0 55 55 0 55 0 0 -55z m-440 -110 l0 -55 55 0 55 0 0 -110 0
-110 -55 0 -55 0 0 -55 0 -55 -220 0 -220 0 0 110 0 110 55 0 55 0 0 110 0
110 165 0 165 0 0 -55z m770 -110 l0 -55 -55 0 -55 0 0 -110 0 -110 -55 0 -55
0 0 -165 0 -165 -55 0 -55 0 0 165 0 165 55 0 55 0 0 110 0 110 55 0 55 0 0
55 0 55 55 0 55 0 0 -55z m-660 -440 l0 -55 -55 0 -55 0 0 55 0 55 55 0 55 0
0 -55z m880 -55 l0 -110 -55 0 -55 0 0 -110 0 -110 -55 0 -55 0 0 110 0 110
55 0 55 0 0 110 0 110 55 0 55 0 0 -110z m1540 55 l0 -55 55 0 55 0 0 -55 0
-55 -55 0 -55 0 0 55 0 55 -55 0 -55 0 0 55 0 55 55 0 55 0 0 -55z m-3850
-110 l0 -55 -55 0 -55 0 0 55 0 55 55 0 55 0 0 -55z m1540 -440 l0 -55 55 0
55 0 0 -165 0 -165 -110 0 -110 0 0 55 0 55 55 0 55 0 0 110 0 110 -110 0
-110 0 0 55 0 55 110 0 110 0 0 -55z m660 -660 l0 -55 220 0 220 0 0 -55 0
-55 110 0 110 0 0 -55 0 -55 55 0 55 0 0 -55 0 -55 -55 0 -55 0 0 -55 0 -55
55 0 55 0 0 -55 0 -55 -110 0 -110 0 0 55 0 55 -165 0 -165 0 0 -165 0 -165
110 0 110 0 0 55 0 55 220 0 220 0 0 -55 0 -55 55 0 55 0 0 -110 0 -110 -55 0
-55 0 0 -55 0 -55 -55 0 -55 0 0 -110 0 -110 55 0 55 0 0 -55 0 -55 55 0 55 0
0 -110 0 -110 55 0 55 0 0 -55 0 -55 -55 0 -55 0 0 -55 0 -55 -110 0 -110 0 0
-55 0 -55 -330 0 -330 0 0 165 0 165 110 0 110 0 0 55 0 55 55 0 55 0 0 55 0
55 55 0 55 0 0 110 0 110 -110 0 -110 0 0 -55 0 -55 -220 0 -220 0 0 110 0
110 -110 0 -110 0 0 110 0 110 55 0 55 0 0 55 0 55 55 0 55 0 0 55 0 55 55 0
55 0 0 110 0 110 -55 0 -55 0 0 275 0 275 55 0 55 0 0 -55z m-660 -220 l0 -55
-220 0 -220 0 0 55 0 55 220 0 220 0 0 -55z m-770 -330 l0 -165 -55 0 -55 0 0
-55 0 -55 -55 0 -55 0 0 55 0 55 55 0 55 0 0 165 0 165 55 0 55 0 0 -165z
m-1540 0 l0 -55 110 0 110 0 0 -55 0 -55 330 0 330 0 0 55 0 55 110 0 110 0 0
55 0 55 55 0 55 0 0 -55 0 -55 -55 0 -55 0 0 -55 0 -55 -110 0 -110 0 0 -55 0
-55 110 0 110 0 0 -220 0 -220 55 0 55 0 0 -55 0 -55 -55 0 -55 0 0 -55 0 -55
-55 0 -55 0 0 -55 0 -55 -110 0 -110 0 0 55 0 55 110 0 110 0 0 55 0 55 -110
0 -110 0 0 55 0 55 -55 0 -55 0 0 55 0 55 55 0 55 0 0 55 0 55 55 0 55 0 0 55
0 55 -55 0 -55 0 0 55 0 55 -220 0 -220 0 0 -110 0 -110 55 0 55 0 0 -55 0
-55 55 0 55 0 0 -55 0 -55 -55 0 -55 0 0 -55 0 -55 -110 0 -110 0 0 -55 0 -55
110 0 110 0 0 -55 0 -55 110 0 110 0 0 -55 0 -55 -110 0 -110 0 0 55 0 55
-110 0 -110 0 0 55 0 55 -55 0 -55 0 0 55 0 55 -55 0 -55 0 0 55 0 55 -55 0
-55 0 0 110 0 110 -55 0 -55 0 0 165 0 165 55 0 55 0 0 -165 0 -165 55 0 55 0
0 110 0 110 110 0 110 0 0 55 0 55 -110 0 -110 0 0 55 0 55 -55 0 -55 0 0 55
0 55 55 0 55 0 0 -55z m1320 -495 l0 -110 -55 0 -55 0 0 110 0 110 55 0 55 0
0 -110z m770 55 l0 -55 -55 0 -55 0 0 55 0 55 55 0 55 0 0 -55z m2640 -220 l0
-55 -55 0 -55 0 0 55 0 55 55 0 55 0 0 -55z m-2640 -220 l0 -55 -55 0 -55 0 0
55 0 55 55 0 55 0 0 -55z m330 0 l0 -55 220 0 220 0 0 -55 0 -55 -220 0 -220
0 0 55 0 55 -55 0 -55 0 0 55 0 55 55 0 55 0 0 -55z m-330 -220 l0 -55 -55 0
-55 0 0 55 0 55 55 0 55 0 0 -55z m2310 -110 l0 -55 -55 0 -55 0 0 55 0 55 55
0 55 0 0 -55z m-2310 -110 l0 -55 -55 0 -55 0 0 55 0 55 55 0 55 0 0 -55z
m-1430 -165 l0 -110 -110 0 -110 0 0 110 0 110 110 0 110 0 0 -110z m1650 55
l0 -55 110 0 110 0 0 -55 0 -55 -110 0 -110 0 0 -55 0 -55 110 0 110 0 0 -30
0 -30 -165 0 -165 0 0 85 0 85 55 0 55 0 0 55 0 55 -55 0 -55 0 0 55 0 55 55
0 55 0 0 -55z m-220 -110 l0 -55 -110 0 -110 0 0 55 0 55 110 0 110 0 0 -55z"/>
<path d="M3520 2095 l0 -55 220 0 220 0 0 55 0 55 -220 0 -220 0 0 -55z"/>
<path d="M330 1270 l0 -110 55 0 55 0 0 -55 0 -55 55 0 55 0 0 55 0 55 -55 0
-55 0 0 110 0 110 -55 0 -55 0 0 -110z"/>
<path d="M1320 1105 l0 -55 55 0 55 0 0 55 0 55 -55 0 -55 0 0 -55z"/>
<path d="M3680 4777 c-49 -16 -133 -102 -148 -153 -8 -29 -12 -156 -12 -439 0
-283 4 -410 12 -439 16 -55 99 -138 154 -154 58 -17 820 -17 878 0 55 16 138
99 154 154 17 58 17 820 0 878 -16 55 -99 138 -154 154 -55 16 -832 15 -884
-1z m392 -224 l3 -128 50 0 50 0 3 128 3 127 172 0 c153 0 176 -2 204 -20 63
-38 63 -38 63 -472 0 -362 -1 -396 -18 -427 -33 -62 -65 -71 -254 -71 l-167 0
-3 128 -3 127 -50 0 -50 0 -3 -127 -3 -128 -167 0 c-189 0 -221 9 -254 71 -17
31 -18 65 -18 427 0 434 0 434 63 472 28 18 51 20 204 20 l172 0 3 -127z"/>
<path d="M770 2645 l0 -55 110 0 110 0 0 55 0 55 -110 0 -110 0 0 -55z"/>
<path d="M440 2425 l0 -55 55 0 55 0 0 -55 0 -55 330 0 330 0 0 55 0 55 55 0
55 0 0 55 0 55 -55 0 -55 0 0 -55 0 -55 -330 0 -330 0 0 55 0 55 -55 0 -55 0
0 -55z"/>
<path d="M5089 995 c-7 -30 -16 -55 -21 -55 -4 0 -8 -11 -8 -24 0 -14 -5 -37
-10 -52 -6 -16 -7 -30 -2 -33 5 -3 11 -13 14 -21 2 -8 12 15 21 50 17 72 33
190 24 190 -3 0 -11 -25 -18 -55z"/>
</g>
</svg>
